{
	"asset":{
		"generator":"Khronos glTF Blender I/O v4.2.60",
		"version":"2.0"
	},
	"scene":0,
	"scenes":[
		{
			"name":"Scene",
			"nodes":[
				0
			]
		}
	],
	"nodes":[
		{
			"mesh":0,
			"name":"Rodin_Thinker",
			"rotation":[
				0.7071068286895752,
				0,
				0,
				0.7071068286895752
			]
		}
	],
	"materials":[
		{
			"doubleSided":true,
			"name":"Material.001",
			"pbrMetallicRoughness":{
				"baseColorFactor":[
					0.6705644130706787,
					0.6563291549682617,
					0.7118375301361084,
					1
				],
				"roughnessFactor":0.35196375846862793
			}
		}
	],
	"meshes":[
		{
			"name":"Rodin_Thinker",
			"primitives":[
				{
					"attributes":{
						"POSITION":0,
						"NORMAL":1,
						"TEXCOORD_0":2
					},
					"indices":3,
					"material":0
				}
			]
		}
	],
	"accessors":[
		{
			"bufferView":0,
			"componentType":5126,
			"count":28436,
			"max":[
				0.5762190222740173,
				0.5770919919013977,
				-0.0013559999642893672
			],
			"min":[
				-0.9329630136489868,
				-0.4916529953479767,
				-1.7867790460586548
			],
			"type":"VEC3"
		},
		{
			"bufferView":1,
			"componentType":5126,
			"count":28436,
			"type":"VEC3"
		},
		{
			"bufferView":2,
			"componentType":5126,
			"count":28436,
			"type":"VEC2"
		},
		{
			"bufferView":3,
			"componentType":5123,
			"count":152922,
			"type":"SCALAR"
		}
	],
	"bufferViews":[
		{
			"buffer":0,
			"byteLength":341232,
			"byteOffset":0,
			"target":34962
		},
		{
			"buffer":0,
			"byteLength":341232,
			"byteOffset":341232,
			"target":34962
		},
		{
			"buffer":0,
			"byteLength":227488,
			"byteOffset":682464,
			"target":34962
		},
		{
			"buffer":0,
			"byteLength":305844,
			"byteOffset":909952,
			"target":34963
		}
	],
	"buffers":[
		{
			"byteLength":1215796,
			"uri":"thinker.bin"
		}
	]
}
